# xmcd
#
# Track frame offsets:
#	150
#	24300
#	44847
#	60815
#	76973
#	96327
#	115677
#	135812
#	159697
#	184813
#	201505
#	233050
#	255225
#	279953
#	302904
#
# Disc length: 4088 seconds
#
# Revision: 1
# Processed by: cddbd v1.5.2PL0 Copyright (c) Steve Scherf et al.
# Submitted via: audiograbber 1.83.01
#
DISCID=be0ff60f
DTITLE=Corinthian D. Platinum - The Album Vol. 1
DYEAR=2011
DGENRE=Rap
TTITLE0=Sucker Tight
TTITLE1=She's Groovy
TTITLE2=It's Another Day It's Another Dollar
TTITLE3=Deep Down South
TTITLE4=Don't Stop
TTITLE5=As The World Ends
TTITLE6=I Just Love The Way You Say My Name
TTITLE7=Jazzy Plat
TTITLE8=Cutie Pie
TTITLE9=Been on My Grind (Something Gotta Give)
TTITLE10=Confused In Time
TTITLE11=I Wanna Rock With You
TTITLE12=Kings And Queens
TTITLE13=Memories
TTITLE14=Outta Intro Spiritual
EXTD=
EXTT0=
EXTT1=
EXTT2=
EXTT3=
EXTT4=
EXTT5=
EXTT6=
EXTT7=
EXTT8=
EXTT9=
EXTT10=
EXTT11=
EXTT12=
EXTT13=
EXTT14=
PLAYORDER=
